<svg xmlns="http://www.w3.org/2000/svg" xmlns:xlink="http://www.w3.org/1999/xlink" width="208.398" height="47.527" viewBox="0 0 208.398 47.527">
  <defs>
    <linearGradient id="linear-gradient" y1="0.5" x2="1" y2="0.5" gradientUnits="objectBoundingBox">
      <stop offset="0" stop-color="#fd0180"/>
      <stop offset="1" stop-color="#fd8501"/>
    </linearGradient>
  </defs>
  <g id="QD_Service" data-name="QD Service" transform="translate(0 -0.49)">
    <g id="Group_4" data-name="Group 4" transform="translate(0 0.49)">
      <g id="Group_3" data-name="Group 3">
        <path id="Path_167" data-name="Path 167" d="M35.666,82.447C34.4,84.03,33.44,85.44,32.2,86.839q-1.523-1.155-3.043-2.307A2.667,2.667,0,0,0,28.213,84a2.826,2.826,0,0,0-1.9.536,17,17,0,0,1-13.685.985A17.04,17.04,0,0,1,2.79,75.963c1.767,0,3.522-.023,5.292-.023l.59.008.291.452a11.618,11.618,0,0,0,16.168,2.706,18.408,18.408,0,0,1,1.629-1.153,4.482,4.482,0,0,1,.594-.291,2.7,2.7,0,0,1,1.575-.138,4.067,4.067,0,0,1,1.33.77.06.06,0,0,1,.031.031Z" transform="translate(-1.721 -47.026)" fill="url(#linear-gradient)"/>
        <path id="Path_168" data-name="Path 168" d="M32.562,28.522q-.207.747-.483,1.483c-.015.038-.023.084-.038.123a.361.361,0,0,1-.046.115,3.764,3.764,0,0,1-.33.72,11.367,11.367,0,0,0-4.729-2.621l.123-.238a11.561,11.561,0,0,0,1.023-5.081c.042-1.958.031-3.909-.073-5.863,0-.042,0-.08-.008-.123a13.639,13.639,0,0,0-.878-4.683,11.2,11.2,0,0,0-2.989-3.982l-.2-.161a11.069,11.069,0,0,0-6.925-2.437h-.682A11.059,11.059,0,0,0,5.285,16.823v6.794a12.679,12.679,0,0,0,1.667,5.794l-5.882.011A16.106,16.106,0,0,1,0,23.617V16.823A16.35,16.35,0,0,1,16.337.49h.682A16.428,16.428,0,0,1,29.132,5.87a16.169,16.169,0,0,1,4.127,9.565c.054.594.084,1.192.1,1.79C33.478,20.965,33.57,24.882,32.562,28.522Z" transform="translate(0 -0.49)" fill="#004182"/>
      </g>
      <path id="Path_169" data-name="Path 169" d="M129.038,14.3a14.389,14.389,0,0,0-6.07-6.154,19.708,19.708,0,0,0-9.335-2.1H104.47V41.4h9.163c5.438,0,9.764-1.575,12.834-4.691S131.1,29.25,131.1,23.778A20.4,20.4,0,0,0,129.038,14.3Zm-6.607,19.057c-2.108,2.054-5.108,3.093-8.906,3.093h-3.759v-25.4h3.759c3.8,0,6.8,1.039,8.906,3.093s3.181,5.288,3.181,9.634C125.612,28.093,124.543,31.316,122.431,33.362Z" transform="translate(-64.435 -3.919)" fill="#004182"/>
      <path id="Path_170" data-name="Path 170" d="M196.2,49.215a7.712,7.712,0,0,1-2.809,2.767,8.991,8.991,0,0,1-4.468.993,6.23,6.23,0,0,1-5.085-2.2,8.954,8.954,0,0,1-2.016-4.572H200.71l.08-.835c.035-.364.054-.878.054-1.525a13.193,13.193,0,0,0-1.548-6.358,11.833,11.833,0,0,0-4.3-4.533h0a11.617,11.617,0,0,0-6.124-1.671,12.1,12.1,0,0,0-6.4,1.721,11.866,11.866,0,0,0-4.4,4.771,14.655,14.655,0,0,0-1.567,6.814A14.5,14.5,0,0,0,178.1,51.4a12,12,0,0,0,4.449,4.767,12.346,12.346,0,0,0,6.469,1.717,13.962,13.962,0,0,0,6.779-1.575,12.585,12.585,0,0,0,4.645-4.35l.483-.763-4.231-2.82Zm-14.045-7.63a8.273,8.273,0,0,1,2.092-3.6,6.2,6.2,0,0,1,4.622-1.786,6.432,6.432,0,0,1,4.618,1.56,7.224,7.224,0,0,1,1.958,3.825Z" transform="translate(-108.868 -19.481)" fill="#004182"/>
      <path id="Path_171" data-name="Path 171" d="M262.663,34.052a10.614,10.614,0,0,0-7.247-2.752,12.1,12.1,0,0,0-6.4,1.721,11.946,11.946,0,0,0-4.4,4.744,14.527,14.527,0,0,0-1.567,6.791,14.622,14.622,0,0,0,1.59,6.867,12,12,0,0,0,4.449,4.767,12.246,12.246,0,0,0,6.419,1.717,10.477,10.477,0,0,0,4.993-1.222,11.244,11.244,0,0,0,2.158-1.51V55.3a7.165,7.165,0,0,1-1.678,4.94,5.319,5.319,0,0,1-4.235,1.862h-8.071a2.458,2.458,0,0,0,0,4.917h8.071a11.1,11.1,0,0,0,5.771-1.518,10.491,10.491,0,0,0,3.959-4.2,12.772,12.772,0,0,0,1.391-6v-23.2h-5.212v1.958Zm-.947,6.151a10.7,10.7,0,0,1,0,8.8,7.069,7.069,0,0,1-2.564,2.947,6.794,6.794,0,0,1-3.736,1.042,6.519,6.519,0,0,1-3.656-1.039A7.086,7.086,0,0,1,249.216,49a10.041,10.041,0,0,1-.947-4.445,9.813,9.813,0,0,1,.943-4.369,7.134,7.134,0,0,1,2.548-2.928,6.5,6.5,0,0,1,3.656-1.039,6.721,6.721,0,0,1,3.736,1.042A6.99,6.99,0,0,1,261.717,40.2Z" transform="translate(-149.909 -19.493)" fill="#004182"/>
      <path id="Path_172" data-name="Path 172" d="M375.17,49.215a7.683,7.683,0,0,1-2.809,2.767,8.99,8.99,0,0,1-4.468.993,6.242,6.242,0,0,1-5.089-2.2,8.954,8.954,0,0,1-2.016-4.572h18.885l.08-.835c.034-.364.054-.878.054-1.525a13.193,13.193,0,0,0-1.548-6.358,11.851,11.851,0,0,0-4.292-4.533h0a11.617,11.617,0,0,0-6.124-1.671,12.1,12.1,0,0,0-6.4,1.721,11.866,11.866,0,0,0-4.4,4.771,14.653,14.653,0,0,0-1.564,6.814,14.5,14.5,0,0,0,1.59,6.817,12,12,0,0,0,4.449,4.767,12.346,12.346,0,0,0,6.469,1.717,13.962,13.962,0,0,0,6.779-1.575,12.556,12.556,0,0,0,4.645-4.35l.483-.763-4.231-2.82Zm-14.041-7.63a8.294,8.294,0,0,1,2.092-3.6,6.2,6.2,0,0,1,4.622-1.786,6.439,6.439,0,0,1,4.618,1.56,7.254,7.254,0,0,1,1.958,3.825Z" transform="translate(-219.254 -19.481)" fill="#004182"/>
      <path id="Path_173" data-name="Path 173" d="M441.72,49.215a7.683,7.683,0,0,1-2.809,2.767,8.99,8.99,0,0,1-4.468.993,6.23,6.23,0,0,1-5.085-2.2,8.954,8.954,0,0,1-2.016-4.572h18.881l.084-.832c.038-.368.054-.866.054-1.529a13.193,13.193,0,0,0-1.548-6.358,11.833,11.833,0,0,0-4.3-4.533h0a11.617,11.617,0,0,0-6.124-1.671,12.1,12.1,0,0,0-6.4,1.721,11.866,11.866,0,0,0-4.4,4.771,14.648,14.648,0,0,0-1.564,6.81,14.5,14.5,0,0,0,1.59,6.817,12,12,0,0,0,4.449,4.767,12.346,12.346,0,0,0,6.469,1.717,13.988,13.988,0,0,0,6.783-1.575,12.585,12.585,0,0,0,4.645-4.35l.483-.763-4.231-2.82Zm-14.045-7.63a8.273,8.273,0,0,1,2.092-3.6,6.205,6.205,0,0,1,4.622-1.786,6.432,6.432,0,0,1,4.618,1.56,7.224,7.224,0,0,1,1.958,3.825Z" transform="translate(-260.301 -19.481)" fill="#004182"/>
      <path id="Path_174" data-name="Path 174" d="M506.41,44.294c-1.575-1.284-3.951-2.081-7.066-2.361-2.744-.23-4-.751-4.576-1.15a2.182,2.182,0,0,1-1.065-1.889,2.146,2.146,0,0,1,.966-1.916,6.056,6.056,0,0,1,3.411-.778,7.293,7.293,0,0,1,3.667.812,5.018,5.018,0,0,1,2.069,2.487l.383.9,4.7-2.311-.372-.816c-1.809-3.974-5.239-5.99-10.2-5.99a11.174,11.174,0,0,0-6.948,1.974,6.84,6.84,0,0,0-2.69,5.733,6.627,6.627,0,0,0,2.384,5.311c1.533,1.3,3.928,2.062,7.323,2.345,2.614.226,3.79.732,4.315,1.115a2.606,2.606,0,0,1,.981,2.276,2.209,2.209,0,0,1-1.211,2.115,7.773,7.773,0,0,1-3.809.824c-3.2,0-5.281-1.107-6.342-3.38l-.4-.855-4.7,2.315.425.832a10.452,10.452,0,0,0,4.258,4.445,12.821,12.821,0,0,0,6.369,1.556,14.491,14.491,0,0,0,5.131-.9,9.138,9.138,0,0,0,3.959-2.786,7.076,7.076,0,0,0,1.541-4.564A6.645,6.645,0,0,0,506.41,44.294Z" transform="translate(-300.515 -19.481)" fill="#004182"/>
      <path id="Path_175" data-name="Path 175" d="M333.578,33.469a6.778,6.778,0,0,0-2.453,3.629L329.8,36.47a4.377,4.377,0,0,0-1.878-.406,6.207,6.207,0,0,0-3.46,1.039,7.6,7.6,0,0,0-2.617,3.073,11.073,11.073,0,0,0-1.016,4.921v12.01H315.62V32.089h5.212v2.568a10.934,10.934,0,0,1,1.935-1.751,8.841,8.841,0,0,1,5.162-1.606,8.368,8.368,0,0,1,2.556.395l.536.169h0c.034.019.069.031.1.046A10.639,10.639,0,0,1,333.578,33.469Z" transform="translate(-194.669 -19.493)" fill="#004182"/>
    </g>
  </g>
</svg>
