<svg id="Group_75" data-name="Group 75" xmlns="http://www.w3.org/2000/svg" width="41" height="42" viewBox="0 0 41 42">
  <g id="Group_74" data-name="Group 74">
    <rect id="Rectangle_5174" data-name="Rectangle 5174" width="41" height="42" rx="9" fill="#fedf00" opacity="0.1"/>
  </g>
  <g id="ac0ea5e7f975c25af1b7b30257d85607" transform="translate(9.223 9.849)">
    <path id="Path_520" data-name="Path 520" d="M1.526,291.184a1.11,1.11,0,0,0-1,1.108v4.459a1.108,1.108,0,1,0,2.215,0v-3.338H6.06a1.117,1.117,0,0,0,0-2.234H1.635q-.054,0-.109,0Zm5.649,4.474a2.222,2.222,0,0,0-2.2,2.208v8.942a2.218,2.218,0,0,0,2.2,2.208h8.885a2.222,2.222,0,0,0,2.194-2.208v-8.941a2.222,2.222,0,0,0-2.194-2.208Zm14.391,11.117a1.1,1.1,0,0,0-.78.341,1.116,1.116,0,0,0-.309.8v3.338H17.152a1.115,1.115,0,0,0,0,2.229h4.43a1.109,1.109,0,0,0,1.106-1.113V307.91a1.116,1.116,0,0,0-.321-.809,1.1,1.1,0,0,0-.8-.329Z" transform="translate(-0.529 -291.179)" fill="#fff081"/>
    <path id="Path_521" data-name="Path 521" d="M1.526,291.184a1.11,1.11,0,0,0-1,1.108v4.459a1.108,1.108,0,1,0,2.215,0v-3.338H6.06a1.117,1.117,0,0,0,0-2.234H1.635q-.054,0-.109,0Zm5.649,4.474a2.222,2.222,0,0,0-2.2,2.208v8.942a2.222,2.222,0,0,0,2.2,2.213h8.885a2.223,2.223,0,0,0,2.2-2.213v-8.941a2.222,2.222,0,0,0-2.2-2.208Zm.017,2.225h8.852v8.909H7.191Zm14.374,8.892a1.1,1.1,0,0,0-.782.339,1.117,1.117,0,0,0-.31.8v3.338h-3.32a1.115,1.115,0,0,0,0,2.229h4.43a1.109,1.109,0,0,0,1.106-1.113V307.91a1.116,1.116,0,0,0-.321-.809,1.1,1.1,0,0,0-.8-.329Z" transform="translate(-0.529 -291.179)" fill="#fedf00"/>
  </g>
</svg>
