<svg xmlns="http://www.w3.org/2000/svg" width="22.868" height="22.868" viewBox="0 0 22.868 22.868">
  <g id="Group_26090" data-name="Group 26090" transform="translate(-0.351 -0.349)">
    <path id="Path_17937" data-name="Path 17937" d="M22.678,20.069,17.8,15.191a2.436,2.436,0,0,1-2.2-.328,8.728,8.728,0,1,0-.734.733,2.437,2.437,0,0,1,.328,2.2l4.877,4.877a1.844,1.844,0,0,0,2.608-2.608Zm-13.6-4.33A6.666,6.666,0,1,1,15.74,9.072,6.675,6.675,0,0,1,9.074,15.738Z" fill="#2962ff"/>
    <path id="Path_17938" data-name="Path 17938" d="M18.255,12.1a5.976,5.976,0,1,0,5.975,5.976A5.982,5.982,0,0,0,18.255,12.1Zm4.325,6.841a.734.734,0,0,1-.735-.734,3.684,3.684,0,0,0-3.68-3.68.735.735,0,0,1,0-1.47,5.155,5.155,0,0,1,5.149,5.15A.733.733,0,0,1,22.581,18.946Z" transform="translate(-9.182 -9.049)" fill="#2962ff"/>
  </g>
</svg>
