<svg xmlns="http://www.w3.org/2000/svg" width="19.007" height="19.007" viewBox="0 0 19.007 19.007">
  <g id="_8a715c193524ac798fa07a15c1132cda" data-name="8a715c193524ac798fa07a15c1132cda" transform="translate(0 0)">
    <path id="Path_18303" data-name="Path 18303" d="M0,19.007H19.007V0H0Z" transform="translate(0 0)" fill="none"/>
    <path id="Path_18304" data-name="Path 18304" d="M13.088,21.839H5.96A1.579,1.579,0,0,1,4.5,20.873L2.115,15.29A1.584,1.584,0,0,1,2,14.712V13.195l.008-.008L2,13.128a1.583,1.583,0,0,1,1.584-1.584h5L7.829,7.924A1.266,1.266,0,0,1,7.8,7.675a1.185,1.185,0,0,1,.348-.839L8.993,6l5.215,5.215a1.594,1.594,0,0,1,.463,1.121v7.92A1.583,1.583,0,0,1,13.088,21.839Zm3.168,0v-9.5h3.168v9.5Z" transform="translate(-1.208 -5.208)" fill="#fff"/>
  </g>
</svg>
