<svg xmlns="http://www.w3.org/2000/svg" width="35.089" height="35.089" viewBox="0 0 35.089 35.089">
  <g id="_8b20c21fe978e02df3ac69a5f8868b5a" data-name="8b20c21fe978e02df3ac69a5f8868b5a" transform="translate(0 0)">
    <path id="Path_17949" data-name="Path 17949" d="M0,0V35.089H35.089V0Z" transform="translate(0 0)" fill="none" fill-rule="evenodd"/>
    <path id="Path_17950" data-name="Path 17950" d="M17.084,21.947c.068-.021.139-.035.205-.062a1.1,1.1,0,0,0,.356-.238l8.777-8.778a1.471,1.471,0,0,0,.238-.355,1.1,1.1,0,0,0-1.623-1.332c-.06.039-.111.091-.167.136l-8,8-8-8L8.7,11.182c-.064-.034-.124-.073-.19-.1A1.1,1.1,0,0,0,7.18,12.7c.041.059.091.111.137.166l8.777,8.778c.056.045.106.1.167.136a1.1,1.1,0,0,0,.395.164,1.518,1.518,0,0,0,.429,0Z" transform="translate(0.676 1.062)"/>
  </g>
</svg>
