<svg xmlns="http://www.w3.org/2000/svg" width="22.868" height="24.731" viewBox="0 0 22.868 24.731">
  <path id="Path_17939" data-name="Path 17939" d="M62.941,61.543a.251.251,0,0,1,0-.5H74.46a.251.251,0,0,1,0,.5ZM73.1,39.359v3.169a1.649,1.649,0,0,0,1.642,1.642H77.9Zm1.151,11.935H56.785A1.394,1.394,0,0,0,55.4,52.68v5.46a1.394,1.394,0,0,0,1.385,1.385h0a.251.251,0,0,1,.222.37l-.923,1.75,3.6-2.08a.438.438,0,0,1,.274-.046h14.3a1.39,1.39,0,0,0,1.385-1.385V52.68a1.387,1.387,0,0,0-1.385-1.385Zm-14.039-.507H74.249a1.893,1.893,0,0,1,1.887,1.887v5.46a1.893,1.893,0,0,1-1.887,1.887H60.211V62.09a1.646,1.646,0,0,0,1.642,1.642H76.626a1.649,1.649,0,0,0,1.642-1.642V44.671H74.745A2.154,2.154,0,0,1,72.6,42.522V39H61.852a1.646,1.646,0,0,0-1.642,1.642Zm5.882,3.91-.57-.986-.564.975a.267.267,0,0,1-.171.131l-1.111.239.752.838a.253.253,0,0,1,.068.2l-.114,1.134,1.043-.462a.243.243,0,0,1,.2,0l1.043.462-.114-1.134h0a.25.25,0,0,1,.063-.194l.758-.849-1.111-.239h0a.24.24,0,0,1-.171-.114Zm-.353-1.607.735,1.26,1.431.308a.251.251,0,0,1,.12.427l-.963,1.072.148,1.453a.256.256,0,0,1-.353.256h0l-1.334-.587-1.339.587a.255.255,0,0,1-.353-.268l.148-1.442L63,55.068a.248.248,0,0,1,.137-.41h0l1.425-.308.735-1.26a.252.252,0,0,1,.439,0ZM72.26,54.7l-.576-.986-.564.975a.267.267,0,0,1-.171.131l-1.111.239.752.838a.235.235,0,0,1,.068.2l-.114,1.134,1.043-.462a.257.257,0,0,1,.205,0l1.043.462-.114-1.134h0a.274.274,0,0,1,.063-.194l.758-.849-1.111-.239h0a.22.22,0,0,1-.171-.114ZM71.9,53.09l.735,1.26,1.425.308a.249.249,0,0,1,.12.427l-.958,1.072.148,1.453a.256.256,0,0,1-.353.256h0l-1.334-.587-1.339.587a.254.254,0,0,1-.353-.268l.148-1.442-.969-1.089a.248.248,0,0,1,.137-.41h0l1.425-.308.735-1.26a.247.247,0,0,1,.433,0ZM59.931,54.7l-.576-.986-.564.975a.254.254,0,0,1-.171.131l-1.111.239.752.838a.257.257,0,0,1,.074.2l-.114,1.134,1.043-.462a.243.243,0,0,1,.2,0l1.043.462-.114-1.134h0a.274.274,0,0,1,.063-.194l.758-.849L60.1,54.811h0a.229.229,0,0,1-.171-.114Zm-.353-1.607.735,1.26,1.425.308a.249.249,0,0,1,.12.427l-.963,1.072.148,1.453a.254.254,0,0,1-.353.256h0l-1.339-.587-1.328.587a.254.254,0,0,1-.353-.268l.143-1.442-.969-1.089a.248.248,0,0,1,.137-.41h0L58.4,54.35l.735-1.26a.252.252,0,0,1,.439,0Zm3.061-10.864a.254.254,0,0,1,0-.507h4.486a.254.254,0,0,1,0,.507Zm0,1.864a.251.251,0,0,1,0-.5h7.6a.251.251,0,0,1,0,.5Zm0,2.873a.254.254,0,0,1,0-.507h7.216a.254.254,0,0,1,0,.507Zm0,1.87a.251.251,0,0,1,0-.5H74.87a.251.251,0,0,1,0,.5Z" transform="translate(-55.4 -39)" fill="#2962ff"/>
</svg>
