<svg xmlns="http://www.w3.org/2000/svg" width="19.5" height="22.286" viewBox="0 0 19.5 22.286">
  <path id="Icon_awesome-calendar-alt" data-name="Icon awesome-calendar-alt" d="M0,20.2a2.09,2.09,0,0,0,2.089,2.089H17.411A2.09,2.09,0,0,0,19.5,20.2V8.357H0Zm13.929-8.531a.524.524,0,0,1,.522-.522h1.741a.524.524,0,0,1,.522.522v1.741a.524.524,0,0,1-.522.522H14.451a.524.524,0,0,1-.522-.522Zm0,5.571a.524.524,0,0,1,.522-.522h1.741a.524.524,0,0,1,.522.522v1.741a.524.524,0,0,1-.522.522H14.451a.524.524,0,0,1-.522-.522ZM8.357,11.665a.524.524,0,0,1,.522-.522h1.741a.524.524,0,0,1,.522.522v1.741a.524.524,0,0,1-.522.522H8.88a.524.524,0,0,1-.522-.522Zm0,5.571a.524.524,0,0,1,.522-.522h1.741a.524.524,0,0,1,.522.522v1.741a.524.524,0,0,1-.522.522H8.88a.524.524,0,0,1-.522-.522ZM2.786,11.665a.524.524,0,0,1,.522-.522H5.049a.524.524,0,0,1,.522.522v1.741a.524.524,0,0,1-.522.522H3.308a.524.524,0,0,1-.522-.522Zm0,5.571a.524.524,0,0,1,.522-.522H5.049a.524.524,0,0,1,.522.522v1.741a.524.524,0,0,1-.522.522H3.308a.524.524,0,0,1-.522-.522ZM17.411,2.786H15.322V.7a.7.7,0,0,0-.7-.7H13.232a.7.7,0,0,0-.7.7V2.786H6.964V.7a.7.7,0,0,0-.7-.7H4.875a.7.7,0,0,0-.7.7V2.786H2.089A2.09,2.09,0,0,0,0,4.875V6.964H19.5V4.875A2.09,2.09,0,0,0,17.411,2.786Z" fill="#2962ff"/>
</svg>
