<svg id="_8a715c193524ac798fa07a15c1132cda" data-name="8a715c193524ac798fa07a15c1132cda" xmlns="http://www.w3.org/2000/svg" width="19.007" height="19.007" viewBox="0 0 19.007 19.007">
  <path id="Path_18303" data-name="Path 18303" d="M0,0H19.007V19.007H0Z" fill="none"/>
  <path id="Path_18304" data-name="Path 18304" d="M13.088,6H5.96A1.579,1.579,0,0,0,4.5,6.966L2.115,12.55A1.584,1.584,0,0,0,2,13.128v1.517l.008.008L2,14.712A1.583,1.583,0,0,0,3.584,16.3h5l-.756,3.619a1.266,1.266,0,0,0-.028.249A1.185,1.185,0,0,0,8.15,21l.843.836,5.215-5.215a1.594,1.594,0,0,0,.463-1.121V7.584A1.583,1.583,0,0,0,13.088,6Zm3.168,0v9.5h3.168V6Z" transform="translate(-1.208 -3.624)" fill="#fff"/>
</svg>
