<svg xmlns="http://www.w3.org/2000/svg" width="23.057" height="23.057" viewBox="0 0 23.057 23.057">
  <g id="Group_26526" data-name="Group 26526" transform="translate(-5 -5)">
    <g id="Group_26508" data-name="Group 26508" transform="translate(5 5)">
      <path id="Path_18332" data-name="Path 18332" d="M16.528,5A11.528,11.528,0,1,0,28.057,16.528,11.528,11.528,0,0,0,16.528,5Zm-.517,3.86a.515.515,0,1,1,1.029,0v6.879a.515.515,0,1,1-1.029,0Zm.514,15.612a7.674,7.674,0,0,1-7.691-7.639,7.58,7.58,0,0,1,2.949-6.015.533.533,0,0,1,.745.09.524.524,0,0,1-.09.74A6.535,6.535,0,0,0,9.9,16.833a6.63,6.63,0,0,0,13.259,0,6.536,6.536,0,0,0-2.531-5.176.525.525,0,0,1-.089-.74.533.533,0,0,1,.745-.088,7.582,7.582,0,0,1,2.936,6A7.673,7.673,0,0,1,16.526,24.472Z" transform="translate(-5 -5)" fill="#2962ff"/>
    </g>
  </g>
</svg>
