<svg xmlns="http://www.w3.org/2000/svg" width="24.119" height="24.119" viewBox="0 0 24.119 24.119">
  <path id="Icon_awesome-user-circle" data-name="Icon awesome-user-circle" d="M12.059.563A12.059,12.059,0,1,0,24.119,12.622,12.057,12.057,0,0,0,12.059.563Zm0,4.668A4.279,4.279,0,1,1,7.78,9.51,4.279,4.279,0,0,1,12.059,5.231Zm0,16.727a9.318,9.318,0,0,1-7.124-3.316,5.422,5.422,0,0,1,4.79-2.908,1.19,1.19,0,0,1,.345.053,6.438,6.438,0,0,0,1.989.336,6.414,6.414,0,0,0,1.989-.336,1.19,1.19,0,0,1,.345-.053,5.422,5.422,0,0,1,4.79,2.908A9.318,9.318,0,0,1,12.059,21.958Z" transform="translate(0 -0.563)" fill="#2962ff"/>
</svg>
