<svg xmlns="http://www.w3.org/2000/svg" width="23.528" height="20.378" viewBox="0 0 23.528 20.378">
  <g id="Group_26102" data-name="Group 26102" transform="translate(-1920.532 -1054)">
    <path id="Path_17940" data-name="Path 17940" d="M23.244,21.813a1.185,1.185,0,0,0-2.041,0l-5.249,8.9a1.186,1.186,0,0,0,1.021,1.787H27.468a1.186,1.186,0,0,0,1.021-1.787ZM21.662,25.35a.511.511,0,0,1,.146-.366.522.522,0,0,1,.733,0,.5.5,0,0,1,.146.363v.808l-.15,2.688a.345.345,0,0,1-.1.236.358.358,0,0,1-.254.09.374.374,0,0,1-.258-.09.335.335,0,0,1-.112-.232l-.146-2.688Zm.927,5.253a.561.561,0,0,1-.411.168.551.551,0,0,1-.4-.168.565.565,0,0,1-.172-.411.588.588,0,0,1,.576-.576.565.565,0,0,1,.411.172.551.551,0,0,1,.168.4A.576.576,0,0,1,22.589,30.6Z" transform="translate(1910.073 1038.557)" fill="#2962ff"/>
    <path id="Path_17941" data-name="Path 17941" d="M24.863,24.936a2.337,2.337,0,0,0-.019-2.374L15.626,6.913a2.367,2.367,0,0,0-4.075,0L2.332,22.562a2.363,2.363,0,0,0,2.034,3.566H22.807A2.356,2.356,0,0,0,24.863,24.936Zm-4.348-2.348a1.91,1.91,0,0,1-1.679.972H8.34a1.929,1.929,0,0,1-1.664-2.912l5.249-8.9a1.932,1.932,0,0,1,3.327,0l5.249,8.9A1.917,1.917,0,0,1,20.516,22.588Z" transform="translate(1918.708 1048.25)" fill="#2962ff"/>
    <path id="Path_17942" data-name="Path 17942" d="M60.817,19.791l-1.4-2.378a.374.374,0,1,0-.643.381l1.4,2.378a.371.371,0,0,0,.322.183.359.359,0,0,0,.191-.052A.377.377,0,0,0,60.817,19.791Z" transform="translate(1883.192 1041.062)" fill="#2962ff"/>
    <path id="Path_17943" data-name="Path 17943" d="M51.555,16.063a.374.374,0,1,0-.643.381l3.395,5.765a.371.371,0,0,0,.322.183.359.359,0,0,0,.191-.052.372.372,0,0,0,.131-.512Z" transform="translate(1888.113 1041.907)" fill="#2962ff"/>
    <path id="Path_17944" data-name="Path 17944" d="M1.905,20.347a.375.375,0,0,0,.322-.183l1.4-2.378a.374.374,0,1,0-.643-.381l-1.4,2.378a.375.375,0,0,0,.131.512A.368.368,0,0,0,1.905,20.347Z" transform="translate(1919 1041.067)" fill="#2962ff"/>
    <path id="Path_17945" data-name="Path 17945" d="M4.435,22.384a.375.375,0,0,0,.322-.183l3.395-5.765a.374.374,0,0,0-.643-.381L4.113,21.819a.375.375,0,0,0,.131.512A.359.359,0,0,0,4.435,22.384Z" transform="translate(1917.416 1041.912)" fill="#2962ff"/>
  </g>
</svg>
