<svg xmlns="http://www.w3.org/2000/svg" width="35.681" height="35.681" viewBox="0 0 35.681 35.681">
  <g id="Group_37313" data-name="Group 37313" transform="translate(-4775.129 161.823)">
    <path id="Path_38837" data-name="Path 38837" d="M4797.275-130.9l1.455-.585h8.554l1.273,6.46s-1,6.278-1.273,7.461a25.922,25.922,0,0,1-1.82,4h-5.731l-2.914-3.458s-.636-6.005-.545-6.642S4797.275-130.9,4797.275-130.9Z" transform="translate(-9.116 -13.087)" fill="#267ddb"/>
    <g id="agent_1_" data-name="agent (1)" transform="translate(4775.129 -161.823)">
      <path id="Path_38835" data-name="Path 38835" d="M31.1,35.681H0V0H35.681V35.681Z" fill="none" fill-rule="evenodd"/>
      <path id="Path_38836" data-name="Path 38836" d="M712.875,12.9l-.014,0a1.609,1.609,0,0,1-.552-.26,1.162,1.162,0,0,1-.341-.566,10.375,10.375,0,0,1-.312-1.145,8.55,8.55,0,0,1-.162-1.064,1.976,1.976,0,0,1,.057-.774.721.721,0,0,1,.4-.412,1.485,1.485,0,0,1,.268-.03c.062-.016-.03-.049-.03-.081l-.165-2.31a4.361,4.361,0,0,1,.9-3.322,1.252,1.252,0,0,1,.921-.192.749.749,0,0,1,.07-.837,4.012,4.012,0,0,1,1.311-1.2A5.467,5.467,0,0,1,717.89.145a6.63,6.63,0,0,1,2.886,1.091,4.879,4.879,0,0,1,1.671,1.841,6.79,6.79,0,0,1,.609,2.575,14,14,0,0,1-.122,2.987.922.922,0,0,1,.287.062.716.716,0,0,1,.455.447,2.513,2.513,0,0,1,.041.953,6.8,6.8,0,0,1-.479,2.034,1.226,1.226,0,0,1-.341.523,1.626,1.626,0,0,1-.55.26c-.043.011-.087.024-.13.032l-.07,1.086a2.6,2.6,0,0,1-.7,1.641v1.877a1.134,1.134,0,0,1-.455.923l-2.786,2.139,1.007.6c.2.116.089.376,0,.585l-.406.937c-.1.225-.219.42-.125.644l.1.225.636,2.321.271,8.167,2.05-9.556a5.734,5.734,0,0,0,.783-2.849c.038-1.067-.049-2.586-.144-4.143a.168.168,0,0,1,.279-.133,6.487,6.487,0,0,0,2.074,1.243A41.089,41.089,0,0,0,729.343,20a6.807,6.807,0,0,1,2.294.75c.414.306.652.8,1.042,2.145.244.839.544,8.031.869,9.331a2.189,2.189,0,0,1-1.839,2.694,110.552,110.552,0,0,1-28.055-.016,2.182,2.182,0,0,1-1.847-2.7c.319-1.292.62-8.478.864-9.312.39-1.348.628-1.836,1.04-2.145a6.892,6.892,0,0,1,2.3-.75,40.513,40.513,0,0,0,4.609-1.346,6.457,6.457,0,0,0,2.077-1.243.161.161,0,0,1,.181-.024.167.167,0,0,1,.095.16c-.095,1.554-.179,3.073-.141,4.14a5.748,5.748,0,0,0,.78,2.851l2.05,9.553.273-8.167.634-2.321.06-.138c.1-.225-.016-.422-.122-.642L716.01,21.8c-.1-.206-.2-.468,0-.585l1.078-.642-2.732-2.1a1.129,1.129,0,0,1-.458-.923V15.934l-.2-.214a2.6,2.6,0,0,1-.745-1.692l-.073-1.124Z" transform="translate(-699.836 -0.128)" fill="#333" fill-rule="evenodd"/>
    </g>
  </g>
</svg>
