<svg xmlns="http://www.w3.org/2000/svg" width="39.569" height="39.569" viewBox="0 0 39.569 39.569">
  <g id="Group_37309" data-name="Group 37309" transform="translate(-4806 139)">
    <path id="Path_38826" data-name="Path 38826" d="M4812.667-119.282l13.85-10.332,10.332-1.319,4.836,4.836v10.332l-11.211,9.453-9.892,3.078-7.914-8.134Z" transform="translate(-1.171 -1.417)" fill="#267ddb" stroke="#707070" stroke-width="1"/>
    <path id="accept" d="M20.785,1A19.785,19.785,0,1,0,40.569,20.785,19.737,19.737,0,0,0,20.785,1ZM33.233,13.942,17.157,30.018a1.793,1.793,0,0,1-2.473,0L8.337,23.67A1.749,1.749,0,0,1,10.81,21.2l5.111,5.111L30.759,11.469a1.749,1.749,0,0,1,2.473,2.473Z" transform="translate(4805 -140)" fill="#333"/>
  </g>
</svg>
