<svg xmlns="http://www.w3.org/2000/svg" width="51.113" height="22.517" viewBox="0 0 51.113 22.517">
  <g id="Group_37288" data-name="Group 37288" transform="translate(-1172 -300.196)">
    <path id="Path_38812" data-name="Path 38812" d="M18.46,24s0,2.683.009,2.729a2.334,2.334,0,0,0,2.337,2.2h20a2.346,2.346,0,0,0,2.346-2.337V24a5.992,5.992,0,0,0-4.5-5.759L36.6,17.555a8.75,8.75,0,0,1-11.573,0l-2.045.685A5.97,5.97,0,0,0,18.46,24Zm27.765-6.143c7.576-.266,7.572-11.182,0-11.446C38.654,6.681,38.652,17.584,46.225,17.856Z" transform="translate(1166.738 293.786)" fill="#333"/>
    <path id="Path_38813" data-name="Path 38813" d="M51.727,17.874l-1.387-.456a7.563,7.563,0,0,1-8.434,1.607A7.7,7.7,0,0,1,43.714,24v2.592a.69.69,0,0,1-.009.137h9.346a2.066,2.066,0,0,0,2.063-2.063v-2.09a4.947,4.947,0,0,0-3.386-4.7ZM14.15,17.856c7.563-.268,7.56-11.179,0-11.446C6.577,6.674,6.575,17.591,14.15,17.856ZM6.063,26.728h9.319c-.106-2.659-.108-5.634,1.789-7.694a7.541,7.541,0,0,1-8.4-1.615l-1.387.456A4.947,4.947,0,0,0,4,22.575v2.09a2.066,2.066,0,0,0,2.063,2.063Z" transform="translate(1168 293.786)" fill="#333"/>
    <path id="Path_38814" data-name="Path 38814" d="M48.337,17.856c7.576-.266,7.572-11.182,0-11.446C40.765,6.681,40.763,17.584,48.337,17.856Z" transform="translate(1149.22 293.786)" fill="#333"/>
  </g>
</svg>
