<svg xmlns="http://www.w3.org/2000/svg" width="26.497" height="35.1" viewBox="0 0 26.497 35.1">
  <g id="error_2_" data-name="error (2)" transform="translate(-17.8 -2.8)">
    <path id="Path_38820" data-name="Path 38820" d="M41.941,12.6H40.507a4.3,4.3,0,0,1-4.3-4.3V6.868A2.876,2.876,0,0,0,33.338,4H23.3A4.3,4.3,0,0,0,19,8.3V34.11a4.3,4.3,0,0,0,4.3,4.3H40.507a4.3,4.3,0,0,0,4.3-4.3V15.471A2.876,2.876,0,0,0,41.941,12.6Z" transform="translate(-0.856 -0.856)" fill="#333"/>
    <path id="Path_38821" data-name="Path 38821" d="M83.094,14.894a2.883,2.883,0,0,0-2.638-1.721H79.022a4.3,4.3,0,0,1-4.3-4.3V7.438A2.914,2.914,0,0,0,73,4.8V8.872a6.021,6.021,0,0,0,6.022,6.022Z" transform="translate(-39.371 -1.426)" fill="#100d11" opacity="0.2"/>
    <path id="Path_38822" data-name="Path 38822" d="M39.652,37.9H22.446A4.644,4.644,0,0,1,17.8,33.255V7.446A4.626,4.626,0,0,1,22.446,2.8H32.482a3.207,3.207,0,0,1,3.212,3.212V7.446A3.965,3.965,0,0,0,39.652,11.4h1.434A3.207,3.207,0,0,1,44.3,14.615v18.64A4.626,4.626,0,0,1,39.652,37.9ZM22.446,3.488a3.965,3.965,0,0,0-3.957,3.957V33.255a3.965,3.965,0,0,0,3.957,3.957H39.652a3.965,3.965,0,0,0,3.957-3.957V14.615a2.527,2.527,0,0,0-2.524-2.524H39.652a4.644,4.644,0,0,1-4.646-4.646V6.012a2.527,2.527,0,0,0-2.524-2.524Z" fill="#373636"/>
    <path id="Path_38823" data-name="Path 38823" d="M76,6.9a2.883,2.883,0,0,1,.86,2.036V10.37a4.3,4.3,0,0,0,4.3,4.3H82.6A2.841,2.841,0,0,1,84.6,15.5L76,6.9Z" transform="translate(-41.51 -2.924)" fill="#9fa09f"/>
    <path id="Path_38824" data-name="Path 38824" d="M83.676,14.92a.311.311,0,0,1-.258-.115,2.541,2.541,0,0,0-1.778-.717H80.206A4.644,4.644,0,0,1,75.56,9.443V8.009a2.4,2.4,0,0,0-.746-1.778.427.427,0,0,1-.115-.258.373.373,0,0,1,.229-.344.355.355,0,0,1,.4.086l8.6,8.6a.355.355,0,0,1,.086.4.4.4,0,0,1-.344.2Zm-7.4-7.255c0,.115.029.229.029.344V9.443A3.965,3.965,0,0,0,80.263,13.4H81.7a1.4,1.4,0,0,1,.344.029Z" transform="translate(-40.583 -1.997)" fill="#373636"/>
    <circle id="Ellipse_433" data-name="Ellipse 433" cx="1.434" cy="1.434" r="1.434" transform="translate(29.615 26.085)" fill="#267ddb"/>
    <path id="Path_38825" data-name="Path 38825" d="M60,50h2.294v8.029H60Z" transform="translate(-30.098 -33.665)" fill="#267ddb"/>
  </g>
</svg>
